<svg xmlns="http://www.w3.org/2000/svg" xmlns:svg="http://www.w3.org/2000/svg" id="svg4" width="2500" height="2500" preserveAspectRatio="xMidYMid" version="1.1" viewBox="0 0 256 255.962"><metadata id="metadata10"/><path id="path2" fill="#2e9fff" d="m 132.669,252.29758 c -30.422,0 -58.237,-11.117 -79.743,-29.506 l -52.926,7.23 20.447,-50.465 c -7.124,-15.719 -11.12,-33.17 -11.12,-51.575 0,-68.653995 55.222,-124.316995 123.342,-124.316995 68.114,0 123.331,55.663 123.331,124.316995 0,68.666 -55.215,124.316 -123.331,124.316 z m 67.346,-124.672 v -0.346 c 0,-35.872995 -25.298,-61.452995 -68.917,-61.452995 H 83.986 V 190.14358 H 130.4 c 43.958,0.001 69.615,-26.647 69.615,-62.518 z m -68.398,31.974 h -13.78 V 96.379585 h 13.78 c 20.239,0 33.672,11.537995 33.672,31.437995 v 0.346 c 0,20.067 -13.433,31.436 -33.672,31.436 z"/></svg>